<?xml version="1.0" encoding="UTF-8" standalone="no"?>
<svg
   version="1.0"
   width="36.119999mm"
   height="23.809999mm"
   id="svg23"
   sodipodi:docname="아이콘-태블릿.emf"
   xmlns:inkscape="http://www.inkscape.org/namespaces/inkscape"
   xmlns:sodipodi="http://sodipodi.sourceforge.net/DTD/sodipodi-0.dtd"
   xmlns="http://www.w3.org/2000/svg"
   xmlns:svg="http://www.w3.org/2000/svg">
  <sodipodi:namedview
     id="namedview25"
     pagecolor="#ffffff"
     bordercolor="#000000"
     borderopacity="0.25"
     inkscape:showpageshadow="2"
     inkscape:pageopacity="0.0"
     inkscape:pagecheckerboard="0"
     inkscape:deskcolor="#d1d1d1"
     inkscape:document-units="mm" />
  <defs
     id="defs3">
    <pattern
       id="EMFhbasepattern"
       patternUnits="userSpaceOnUse"
       width="6"
       height="6"
       x="0"
       y="0" />
  </defs>
  <path
     style="fill:#f2f2f2;fill-rule:evenodd;fill-opacity:1;stroke:none;"
     d="  M 0.040002776,0.080005551   L 0.040002776,89.086181   L 134.88936,89.086181   L 134.88936,0.080005551   L 0.040002776,0.080005551   z "
     id="path5" />
  <path
     style="fill:#bdd7ee;fill-rule:evenodd;fill-opacity:1;stroke:none;"
     d="  M 9.0406273,10.560733   L 9.0406273,79.565521   L 125.72872,79.565521   L 125.72872,10.560733   L 9.0406273,10.560733   z "
     id="path7" />
  <path
     style="fill:#f2f2f2;fill-rule:evenodd;fill-opacity:1;stroke:none;"
     d="  M 22.361552,17.081185   L 22.361552,27.401901   L 112.3678,27.401901   L 112.3678,17.081185   L 22.361552,17.081185   z "
     id="path9" />
  <path
     style="fill:none;stroke:#ffffff;stroke-width:1.3200916px;stroke-linecap:butt;stroke-linejoin:miter;stroke-miterlimit:8;stroke-dasharray:none;stroke-opacity:1;"
     d="  M 38.522673,72.765049   L 32.202234,69.004788   L 38.522673,65.244527   z "
     id="path11" />
  <path
     style="fill:none;stroke:#ffffff;stroke-width:1.3200916px;stroke-linecap:butt;stroke-linejoin:miter;stroke-miterlimit:8;stroke-dasharray:none;stroke-opacity:1;"
     d="  M 64.044444,69.004788   C 64.044444,66.924644 65.72456,65.244527 67.804705,65.244527   C 69.844846,65.244527 71.524963,66.924644 71.524963,69.004788   C 71.524963,71.084932 69.844846,72.765049 67.804705,72.765049   C 65.72456,72.765049 64.044444,71.084932 64.044444,69.004788  "
     id="path13" />
  <path
     style="fill:none;stroke:#ffffff;stroke-width:1.3200916px;stroke-linecap:butt;stroke-linejoin:miter;stroke-miterlimit:8;stroke-dasharray:none;stroke-opacity:1;"
     d="  M 95.206606,66.764633   C 95.206606,66.124588 95.766645,65.564549 96.406689,65.564549   L 101.16702,65.564549   C 101.84707,65.564549 102.3671,66.124588 102.3671,66.764633   L 102.3671,71.564966   C 102.3671,72.20501 101.84707,72.765049 101.16702,72.765049   L 96.406689,72.765049   C 95.766645,72.765049 95.206606,72.20501 95.206606,71.564966   z "
     id="path15" />
  <path
     style="fill:#f2f2f2;fill-rule:evenodd;fill-opacity:1;stroke:none;"
     d="  M 22.361552,32.402248   L 22.361552,42.762967   L 32.202234,42.762967   L 32.202234,32.402248   L 22.361552,32.402248   z "
     id="path17" />
  <path
     style="fill:#f2f2f2;fill-rule:evenodd;fill-opacity:1;stroke:none;"
     d="  M 35.362454,32.402248   L 35.362454,42.762967   L 45.203137,42.762967   L 45.203137,32.402248   L 35.362454,32.402248   z "
     id="path19" />
  <path
     style="fill:#f2f2f2;fill-rule:evenodd;fill-opacity:1;stroke:none;"
     d="  M 48.363356,32.402248   L 48.363356,42.762967   L 58.204039,42.762967   L 58.204039,32.402248   L 48.363356,32.402248   z "
     id="path21" />
</svg>
